<?xml version="1.0" encoding="utf-8"?>
<!-- Generator: Adobe Illustrator 27.0.0, SVG Export Plug-In . SVG Version: 6.00 Build 0)  -->
<svg version="1.1" id="Capa_1" xmlns="http://www.w3.org/2000/svg" xmlns:xlink="http://www.w3.org/1999/xlink" x="0px" y="0px"
	 viewBox="0 0 100 100" style="enable-background:new 0 0 100 100; fill: white;" xml:space="preserve">
<g>
	<path d="M65,5H35C18.5,5,5,18.5,5,35v30c0,16.5,13.5,30,30,30h30c16.5,0,30-13.5,30-30V35C95,18.5,81.5,5,65,5z M72.9,42.1
		c0,0.7-0.2,1.4-0.3,2.1c-0.1,0.9-0.2,1.8-0.4,2.6c-0.5,2-1,4-2,5.8c-0.8,1.4-1.6,2.7-2.6,3.9c-1.7,1.9-3.6,3.4-6,4.5
		c-2.2,1-4.5,1.5-6.9,1.5c-2.2,0-4.3-0.5-6.2-1.7c-0.7-0.5-1.3-1.1-1.9-1.7c-0.3-0.3-0.3-0.2-0.4,0.1c-0.4,1.2-0.6,2.5-1,3.7
		c-0.4,1.2-0.6,2.5-1,3.7c-0.8,2.3-1.8,4.6-3.1,6.6c-0.7,1.1-1.5,2.2-2.3,3.3c-0.3,0.4-0.7,0.7-0.9,1.1C37.8,78,37.6,78,37.3,78
		c-0.3-0.1-0.4-0.3-0.4-0.6c-0.1-0.6-0.1-1.2-0.2-1.8c-0.2-1.5-0.4-3-0.3-4.5c0-0.1,0-0.3,0-0.4c-0.1-2.4,0.4-4.7,1-7
		c0.3-1.2,0.6-2.5,0.9-3.8c0.7-2.5,1.2-5,1.9-7.5c0.3-1,0.4-2,0.8-3c0.4-1,0.3-1.8-0.1-2.8c-0.5-1.3-0.8-2.7-0.7-4.1
		c0.2-2.4,0.8-4.7,2.6-6.4c1.8-1.7,4.3-2.5,6.8-1c1.2,0.7,1.7,2,1.8,3.3c0.2,1.8-0.1,3.6-0.7,5.3c-0.6,2.1-1.5,4.2-2.1,6.3
		c-0.4,1.6-0.4,3.4,0.7,4.7c1.3,1.5,3.1,2.2,5.1,1.9c2.5-0.4,4.5-1.5,6-3.5c1.3-1.7,2.2-3.6,2.8-5.6c0.6-2,0.9-3.9,1-6
		c0-0.4,0.2-0.7,0.2-1.1c0.1-1.8-0.2-3.5-0.8-5.1c-0.8-2.2-2.1-4-4.1-5.3c-3-1.9-6.3-2.7-9.8-2.5c-2.3,0.1-4.5,0.5-6.6,1.4
		c-1.6,0.7-3,1.6-4.3,2.7c-1.5,1.3-2.7,2.8-3.5,4.6c-1.5,3.1-1.8,6.3-0.9,9.7c0.3,1.1,0.7,2.1,1.6,2.9c0.6,0.7,1,1.4,0.6,2.4
		c-0.3,0.6-0.3,1.3-0.5,2c-0.2,0.9-1,1.4-1.9,1c-1.4-0.5-2.6-1.4-3.6-2.4c-1-1-1.6-2.2-2.2-3.4c-0.5-1.1-0.7-2.1-0.9-3.2
		C27,43.5,27,41.7,27.2,40c0.2-1.3,0.5-2.5,1-3.7c0.2-0.3,0.3-0.7,0.4-1c0.6-1.5,1.5-2.9,2.5-4.2c0.9-1.2,1.9-2.3,3.1-3.3
		c1.3-1.1,2.7-2,4.2-2.8c2.8-1.5,5.8-2.3,8.9-2.7c2.8-0.4,5.6-0.4,8.5,0.1c2.8,0.5,5.4,1.4,7.9,2.8c1.6,0.9,2.9,2,4.2,3.3
		c1.7,1.7,2.9,3.7,3.9,5.9c0.5,1,0.5,2.1,0.8,3.2C73,39.1,72.9,40.6,72.9,42.1z"/>
</g>
</svg>
