<?xml version="1.0" encoding="utf-8"?>
<!-- Generator: Adobe Illustrator 27.0.0, SVG Export Plug-In . SVG Version: 6.00 Build 0)  -->
<svg version="1.1" id="Capa_1" xmlns="http://www.w3.org/2000/svg" xmlns:xlink="http://www.w3.org/1999/xlink" x="0px" y="0px"
	 viewBox="0 0 100 100" style="enable-background:new 0 0 100 100; fill: white;" xml:space="preserve">
<g>
	<path d="M74.6,45.7c3.1-1.6,6-2.9,8.8-4.4c2.6-1.5,4.4,0.2,4.9,2.5c2,11.1,4.1,22.1,6.2,33.2c0.4,2.2-0.2,3.3-2.2,4.2
		c-7.9,3.5-15.7,6.9-23.6,10.4c-1.2,0.5-2.3,0.6-3.5,0.1C56,88.3,46.7,85,37.5,81.6c-0.7-0.2-1.2-0.2-1.9,0.1
		c-7.5,3.3-15.1,6.7-22.7,10c-1.6,0.7-2.8,0.4-3.7-0.7c-0.6-0.8-0.6-1.8-0.4-2.8c1.4-7.7,2.9-15.4,4.4-23.2
		c0.6-3.4,1.3-6.7,1.9-10.1c0.3-1.6,1-2.6,2.4-3.3c3.6-1.7,7.1-3.6,10.7-5.3c0.6-0.3,0.7-0.6,0.4-1.2c-3.3-7.5-3.3-15.1,0.3-22.4
		c3.9-8,10.4-12.9,19.1-14.3c13.5-2.2,26.3,7.3,28.8,21.1c0.9,5.1,0.4,10-1.6,14.8C75,44.6,74.8,45,74.6,45.7z M51.4,13.7
		c-0.4,0-1.2,0-2,0.1c-5.2,0.7-9.6,3.1-13,7.2c-3.2,3.9-4.8,8.5-4.7,13.6c0.1,4.6,1.8,8.7,4.4,12.4c5,7,10,14,15,21
		c0.4,0.6,0.7,0.6,1.1,0c1.7-2.4,3.4-4.8,5.1-7.2c3.5-4.9,7.1-9.7,10.5-14.7c3.3-4.8,4.6-10.2,3.4-16C69.4,20.6,61.3,13.7,51.4,13.7
		z M88.6,76c0-0.1,0-0.2,0-0.3c-1.7-9-3.4-18-5.1-27.1c-0.1-0.8-0.4-0.9-1.1-0.5c-3.8,1.9-7.6,3.9-11.5,5.7c-1.8,0.8-3.1,2-4.2,3.6
		c-0.8,1.1-0.9,2.2-0.8,3.4c0.5,4.6,0.9,9.2,1.4,13.8c0.3,3.3,0.6,6.6,1,9.9c0.1,0.7,0.2,0.9,1,0.6c3.2-1.5,6.4-2.8,9.7-4.3
		c3-1.3,5.9-2.6,8.9-3.9C88.2,76.7,88.7,76.6,88.6,76z M36.6,58.4c0.1-0.6,0-1.1-0.4-1.7c-1.3-1.8-2.6-3.5-3.8-5.3
		c-0.4-0.6-0.8-0.6-1.4-0.3c-2.8,1.4-5.6,2.9-8.4,4.2c-1.6,0.7-2.3,1.7-2.7,3.5c-1.4,8.3-3,16.5-4.6,24.7c0,0.2-0.2,0.5,0,0.7
		c0.2,0.2,0.5,0,0.7-0.1c6-2.6,12.1-5.3,18.1-7.9c0.6-0.3,0.8-0.6,0.8-1.3c0.1-1.5,0.3-3.1,0.5-4.6C35.8,66.3,36.2,62.4,36.6,58.4z
		 M62.4,63.6c-0.3,0.4-0.5,0.7-0.7,0.9c-2.3,3.2-4.8,6.4-7,9.8c-1.8,2.7-4.2,2.7-6,0c-2.6-3.8-5.3-7.5-8-11.2
		c-0.2-0.2-0.3-0.6-0.7-0.7c-0.4,4.3-0.9,8.5-1.3,12.8c-0.1,0.7,0.3,1,0.8,1.2c7.9,2.8,15.7,5.7,23.6,8.5c1.5,0.5,1.5,0.5,1.4-1.2
		c-0.5-4.6-0.9-9.2-1.4-13.8C62.8,67.9,62.6,65.9,62.4,63.6z"/>
	<path d="M51.8,22.6c6.3,0,11.3,5.2,11.3,11.6c0,6.4-5.1,11.7-11.4,11.7c-6.2,0-11.4-5.3-11.4-11.7C40.4,27.8,45.5,22.6,51.8,22.6z
		 M45,34.2c0,3.9,3,7,6.8,7c3.8,0,6.9-3.1,6.9-7c0-3.8-3.1-7-6.8-7C48,27.2,45,30.3,45,34.2z"/>
</g>
</svg>
