<?xml version="1.0" encoding="utf-8"?>
<svg version="1.1" id="Capa_1" xmlns="http://www.w3.org/2000/svg" xmlns:xlink="http://www.w3.org/1999/xlink" x="0px" y="0px"
	viewBox="0 0 100 100" style="enable-background:new 0 0 100 100; fill: #50e217;" xml:space="preserve">
<g>
	<path d="M50.7,10c9.6,0.1,18.2,3.2,25.5,9.5c7.5,6.5,11.9,14.6,13.2,24.4c1.4,10.5-1.1,20.1-7.4,28.5c-6.3,8.4-14.7,13.4-25.1,15.2
		c-2,0.3-4.1,0.5-6.1,0.5C45.3,88,40,87,35,84.8c-0.9-0.4-1.8-0.8-2.7-1.3c-0.4-0.2-0.7-0.2-1-0.1c-4.7,1.5-9.4,3-14.1,4.5
		c-2,0.6-4.1,1.3-6.1,1.9c-0.2,0.1-0.5,0.3-0.7,0.1c-0.2-0.2,0-0.5,0.1-0.7c2.2-6.5,4.4-13,6.6-19.5c0.1-0.4,0.1-0.7-0.1-1
		c-2.8-4.7-4.5-9.8-5.1-15.2c-1-9,0.9-17.4,5.7-25.2c3.9-6.2,9.2-11,15.8-14.3c4.6-2.3,9.5-3.6,14.7-3.9c0.5,0,0.9-0.1,1.3-0.1
		C49.8,10,50.2,10,50.7,10z M83,50.8c0-7.2-1.3-12.4-3.9-17.2c-3.7-6.6-9-11.5-15.9-14.4c-5.1-2.2-10.4-2.9-15.8-2.3
		c-4,0.4-7.8,1.5-11.3,3.3c-4.1,2.1-7.5,4.9-10.4,8.4c-5.6,7-8,15-7.1,24C19.1,58,21,63,24.1,67.4c0.3,0.4,0.3,0.8,0.2,1.3
		c-1.2,3.4-2.3,6.9-3.5,10.3c-0.1,0.2-0.3,0.5-0.2,0.7c0.2,0.2,0.5,0,0.8-0.1c3.6-1.1,7.2-2.3,10.8-3.5c0.4-0.1,0.8-0.1,1.1,0.1
		c1.2,0.8,2.4,1.5,3.7,2c5.8,2.7,11.8,3.6,18,2.7c7.7-1.1,14.2-4.5,19.5-10.3C80.2,64.6,82.9,57.3,83,50.8z"/>
	<path d="M61.2,68.6c-1.8-0.1-3.3-0.6-4.8-1.1c-3.1-1.1-6.1-2.3-8.9-4.1c-4.2-2.7-7.6-6.3-10.5-10.3c-1.9-2.7-3.8-5.4-5-8.6
		c-1.3-3.6-1.4-7.1,0.5-10.6c0.7-1.3,1.6-2.3,2.7-3.2c0.5-0.4,1.1-0.7,1.7-0.8c1.1-0.1,2.2,0,3.3,0.2c0.9,0.1,1.2,0.9,1.5,1.7
		c0.6,1.6,1.2,3.3,1.8,5c0.3,0.9,0.6,1.8,1,2.7c0.3,0.7,0.2,1.3-0.1,2c-0.6,1.2-1.6,2.1-2.5,3.1c-0.8,0.8-0.9,1.2-0.3,2.2
		c2.9,5.3,7,9.3,12.5,11.8c0.1,0.1,0.3,0.1,0.4,0.2c1,0.5,1.4,0.4,2.2-0.4c1.1-1.1,2.2-2.3,3.1-3.6c0.6-0.7,1.1-0.9,2-0.6
		c1.9,0.7,3.6,1.8,5.4,2.7c0.9,0.4,1.7,0.9,2.6,1.4c1,0.6,1.2,1,1.1,2.1c-0.2,3.8-2.4,6.1-5.9,7.5C63.8,68.3,62.4,68.4,61.2,68.6z"
		/>
</g>
</svg>
