<?xml version="1.0" encoding="utf-8"?>
<!-- Generator: Adobe Illustrator 27.0.0, SVG Export Plug-In . SVG Version: 6.00 Build 0)  -->
<svg version="1.1" id="Capa_1" xmlns="http://www.w3.org/2000/svg" xmlns:xlink="http://www.w3.org/1999/xlink" x="0px" y="0px"
	viewBox="0 0 100 100" style="enable-background:new 0 0 100 100; fill: white;" xml:space="preserve">
<g>
	<path d="M58.2,30.8c-3.2-1.4-6.5-1.8-9.9-1.5c-2.5,0.2-4.9,0.9-7.1,2.1c-2.5,1.3-4.7,3-6.5,5.3c-3.5,4.4-5,9.4-4.4,15
		c0.3,3.4,1.5,6.5,3.5,9.3c0.2,0.3,0.2,0.5,0.1,0.8c-0.7,2.1-1.5,4.3-2.2,6.5c-0.1,0.1-0.2,0.3-0.1,0.5c0.1,0.1,0.3,0,0.5-0.1
		c2.3-0.7,4.5-1.4,6.8-2.2c0.3-0.1,0.5-0.1,0.7,0.1c0.7,0.5,1.5,0.9,2.3,1.3c3.6,1.7,7.4,2.2,11.3,1.7c4.8-0.7,8.9-2.8,12.2-6.5
		c3.5-4,5.2-8.5,5.2-12.6c0-4.5-0.8-7.7-2.4-10.7C65.9,35.7,62.6,32.6,58.2,30.8z M59.1,61c-0.5,0.5-1.3,0.5-2.1,0.6
		c-1.1-0.1-2-0.4-3-0.7c-1.9-0.7-3.8-1.4-5.6-2.6c-2.6-1.7-4.8-3.9-6.6-6.5c-1.2-1.7-2.4-3.4-3.1-5.4c-0.8-2.3-0.9-4.5,0.3-6.6
		c0.4-0.8,1-1.4,1.7-2c0.3-0.3,0.7-0.4,1.1-0.5c0.7-0.1,1.4,0,2,0.1c0.5,0.1,0.7,0.6,0.9,1c0.4,1,0.8,2.1,1.1,3.1
		c0.2,0.6,0.4,1.1,0.6,1.7c0.2,0.4,0.1,0.8-0.1,1.2c-0.4,0.7-1,1.3-1.6,1.9c-0.5,0.5-0.6,0.7-0.2,1.4c1.8,3.3,4.4,5.8,7.8,7.4
		c0.1,0,0.2,0.1,0.2,0.1c0.6,0.3,0.9,0.3,1.4-0.2c0.7-0.7,1.4-1.5,2-2.2c0.4-0.5,0.7-0.6,1.2-0.4c1.2,0.5,2.3,1.1,3.4,1.7
		c0.5,0.3,1.1,0.6,1.6,0.9c0.6,0.3,0.7,0.6,0.7,1.3C62.6,58.7,61.3,60.1,59.1,61z"/>
	<path d="M65,5H35C18.5,5,5,18.5,5,35v30c0,16.5,13.5,30,30,30h30c16.5,0,30-13.5,30-30V35C95,18.5,81.5,5,65,5z M69.8,63.9
		c-3.9,5.2-9.2,8.4-15.7,9.5c-1.3,0.2-2.5,0.3-3.8,0.3c-3.4,0-6.7-0.7-9.8-2c-0.6-0.3-1.1-0.5-1.7-0.8c-0.2-0.1-0.4-0.1-0.6-0.1
		c-2.9,0.9-5.9,1.9-8.8,2.8c-1.3,0.4-2.5,0.8-3.8,1.2c-0.1,0-0.3,0.2-0.4,0.1c-0.1-0.1,0-0.3,0.1-0.5c1.4-4.1,2.7-8.1,4.1-12.2
		c0.1-0.2,0.1-0.4,0-0.6c-1.7-2.9-2.8-6.1-3.2-9.5c-0.6-5.6,0.6-10.9,3.6-15.7c2.4-3.9,5.7-6.9,9.8-8.9c2.9-1.4,5.9-2.3,9.2-2.5
		c0.3,0,0.6-0.1,0.8-0.1c0.3,0.1,0.5,0.1,0.8,0.1c6,0.1,11.4,2,15.9,5.9c4.7,4,7.4,9.1,8.2,15.2C75.4,52.7,73.8,58.6,69.8,63.9z"/>
</g>
</svg>
