<?xml version="1.0" encoding="utf-8"?>
<!-- Generator: Adobe Illustrator 27.0.0, SVG Export Plug-In . SVG Version: 6.00 Build 0)  -->
<svg version="1.1" id="Capa_1" xmlns="http://www.w3.org/2000/svg fill: white;" xmlns:xlink="http://www.w3.org/1999/xlink" x="0px" y="0px"
	 viewBox="0 0 100 100" style="enable-background:new 0 0 100 100;" xml:space="preserve">
<path d="M43,89c-1.6,0-3.1,0-4.7,0c-1-0.2-2.1-0.3-3.1-0.6C22.3,85.5,14,72.9,16.3,60c1.8-10.2,9.7-18.2,19.9-20.1
	c2.3-0.4,4.6-0.5,7-0.3c0.5,0,1.1,0,1.1,0.8c0,4.2,0,8.4,0,12.6c0,0.5-0.2,0.6-0.7,0.5c-0.7-0.2-1.4-0.3-2.2-0.3
	c-7.2-0.3-12.5,5.7-11.8,12.3c0.7,6.9,7.4,11.6,14.1,9.8c4.9-1.3,8.4-5.7,8.4-10.9c0-17.3,0-34.6,0-52c0-1.3,0-1.3,1.3-1.3
	c3.8,0,7.5,0,11.3,0c1,0,1,0,1.1,1c0.3,5.8,2.9,10.4,7.4,13.9c3.3,2.5,7,3.7,11.1,3.8c0,4.5,0,8.9,0,13.4c-0.3,0-0.6,0.1-0.8,0.1
	c-3.6-0.1-7.1-0.8-10.5-2c-2.3-0.9-4.5-2-6.6-3.3c-0.2-0.1-0.3-0.3-0.5-0.2c-0.3,0.1-0.2,0.4-0.2,0.6c0,0.2,0,0.5,0,0.7
	c0,8.1,0,16.2,0,24.3c0,1.4,0,2.9-0.3,4.3c-1.3,8.9-6.1,15.4-14.1,19.4C48.6,88,45.9,88.6,43,89z"/>
</svg>
