<?xml version="1.0" encoding="utf-8"?>
<!-- Generator: Adobe Illustrator 27.0.0, SVG Export Plug-In . SVG Version: 6.00 Build 0)  -->
<svg version="1.1" id="Capa_1" xmlns="http://www.w3.org/2000/svg" xmlns:xlink="http://www.w3.org/1999/xlink" x="0px" y="0px"
	 viewBox="0 0 100 100" style="enable-background:new 0 0 100 100; fill: white;" xml:space="preserve">
<path d="M24.8,11.7c0.3,0.2,0.5,0.4,0.9,0.2c2-1,3.8-0.1,5.5,0.9c4.7,2.9,9.4,5.8,14.1,8.8c4.2,2.6,8.4,5.3,12.6,8
	c3.6,2.2,7.2,4.4,10.7,6.7c4.7,2.9,9.3,5.9,14,8.8c1.3,0.8,2.4,1.7,3.1,3.2c0.7,1.7,0.4,3.4-0.8,4.8c-1,1.2-2.4,1.9-3.6,2.7
	c-4.3,2.8-8.7,5.4-13,8.1c-5.1,3.2-10.3,6.4-15.4,9.6c-4.2,2.6-8.3,5.3-12.5,7.9c-3.2,2-6.3,4-9.5,6c-1.1,0.7-2.4,1.2-3.8,1.1
	c-1.5-0.2-3.2-1.5-3.6-4.3c-0.2-1.9,0.1-3.8-0.1-5.7c-0.1-1.1,0-2.2,0-3.2c0-19.3,0-38.6,0-57.9c0-1.7,0.2-3.4,1.4-4.7
	C24.9,12.4,24.9,12.4,24.8,11.7z"/>
</svg>
