<?xml version="1.0" encoding="utf-8"?>
<!-- Generator: Adobe Illustrator 27.0.0, SVG Export Plug-In . SVG Version: 6.00 Build 0)  -->
<svg version="1.1" id="Capa_1" xmlns="http://www.w3.org/2000/svg" xmlns:xlink="http://www.w3.org/1999/xlink" x="0px" y="0px"
	 viewBox="0 0 100 100" style="enable-background:new 0 0 100 100; fill: white;" xml:space="preserve">
<g>
	<path d="M65,5H35C18.5,5,5,18.5,5,35v30c0,16.5,13.5,30,30,30h30c16.5,0,30-13.5,30-30V35C95,18.5,81.5,5,65,5z M50,72
		c-12.2,0-22-9.8-22-22s9.8-22,22-22s22,9.8,22,22S62.2,72,50,72z M75.5,29C73,29,71,27,71,24.5s2-4.5,4.5-4.5s4.5,2,4.5,4.5
		S78,29,75.5,29z"/>
	<g>
		<circle cx="50" cy="50" r="17.5"/>
	</g>
</g>
</svg>
