<?xml version="1.0" encoding="utf-8"?>
<!-- Generator: Adobe Illustrator 27.0.0, SVG Export Plug-In . SVG Version: 6.00 Build 0)  -->
<svg version="1.1" id="Capa_1" xmlns="http://www.w3.org/2000/svg" xmlns:xlink="http://www.w3.org/1999/xlink" x="0px" y="0px"
	 viewBox="0 0 100 100" style="enable-background:new 0 0 100 100; fill: white;" xml:space="preserve">
<path d="M50,81.1c-9.7,0-19.4,0.1-29,0c-5.6-0.1-9.6-2.7-12.1-7.5c-0.9-1.7-1.3-3.6-1.3-5.6c0-12,0-24,0-35.9
	c0-7.4,6-13.1,13.5-13.1c19.3,0,38.7,0,58,0c7,0,12.7,5,13.4,11.8c0.1,0.7,0.1,1.4,0.1,2c0,11.6,0,23.3,0,34.9c0,3.1-0.9,6-2.9,8.5
	c-2.7,3.2-6.2,4.9-10.5,4.9C69.4,81.1,59.7,81.1,50,81.1z M14,33.3c0,0.4-0.1,0.7-0.1,0.9c0,11.2,0,22.4,0,33.6c0,0.6,0,1.1,0.1,1.7
	c0.5,2.5,3,5.3,7.1,5.3c19.2-0.1,38.4,0,57.7,0c0.7,0,1.3,0,2-0.2c3.1-0.8,5.3-3.5,5.3-6.9c-0.1-11.2,0-22.5,0-33.7
	c0-0.3,0.2-0.7-0.2-0.8c-0.3-0.1-0.5,0.2-0.7,0.4C76,40.9,66.8,48.2,57.6,55.5c-4.5,3.5-10.6,3.7-15,0.2c-6.4-5-12.8-10-19.2-15
	C20.3,38.3,17.2,35.8,14,33.3z M50,25.1c-2.9,0-5.8,0-8.6,0c-6.7,0-13.4,0-20.1,0c-1.6,0-3.1,0.3-4.4,1.2C16,26.9,16,27,16.8,27.6
	c6.3,4.9,12.5,9.8,18.8,14.7c3.5,2.8,7.1,5.5,10.6,8.3c2.2,1.7,5.1,1.8,7.2,0.1c9.9-7.8,19.8-15.6,29.7-23.5c0.6-0.4,0.4-0.7-0.1-1
	c-1.4-0.9-2.8-1.2-4.5-1.2C69.1,25.2,59.5,25.1,50,25.1z"/>
</svg>
