<?xml version="1.0" encoding="utf-8"?>
<!-- Generator: Adobe Illustrator 27.0.0, SVG Export Plug-In . SVG Version: 6.00 Build 0)  -->
<svg version="1.1" id="Capa_1" xmlns="http://www.w3.org/2000/svg" xmlns:xlink="http://www.w3.org/1999/xlink" x="0px" y="0px"
	 viewBox="0 0 100 100" style="enable-background:new 0 0 100 100; fill: white;" xml:space="preserve">
<style type="text/css">
</style>
<g>
	<path d="M65,5H35C18.5,5,5,18.5,5,35v30c0,16.5,13.5,30,30,30h30c16.5,0,30-13.5,30-30V35C95,18.5,81.5,5,65,5z M39.3,73.5
		c-3.3,0-6.7,0-10.1,0c0-10.1,0-20.2,0-30.3c3.4,0,6.7,0,10.1,0C39.3,53.2,39.3,63.3,39.3,73.5z M34.3,39.2c-3.4,0-5.8-2.2-5.8-5.4
		c0-3.1,2.4-5.3,5.7-5.3c3.4,0,5.8,2.2,5.8,5.3C40.1,36.9,37.6,39.2,34.3,39.2z M75.4,72.6c0,0.2-0.1,0.5-0.2,0.9c-3.3,0-6.6,0-10,0
		c0-0.6-0.1-1.1-0.1-1.6c0-5,0-10,0-14.9c0-4.2-1.7-6.4-4.9-6.4c-3.3,0-5.4,2.5-5.4,6.4c0,5,0,10,0,14.9c0,0.5,0,0.9-0.1,1.5
		c-3.4,0-6.6,0-10,0c0-10.1,0-20.2,0-30.3c3.4,0,6.6,0,10,0c0,1.2,0,2.3,0,3.9c2.6-3.6,5.9-5,9.8-4.7c6.3,0.4,10.4,4.7,10.8,11.9
		C75.7,60.4,75.4,66.5,75.4,72.6z"/>
	<path class="st0" d="M34.2,28.5c-3.3,0-5.8,2.3-5.7,5.3c0,3.2,2.4,5.4,5.8,5.4c3.3,0,5.8-2.3,5.8-5.3C40,30.7,37.6,28.5,34.2,28.5z
		"/>
</g>
</svg>
