<svg   version="1.1" id="Capa_1" xmlns="http://www.w3.org/2000/svg" xmlns:xlink="http://www.w3.org/1999/xlink" x="0px" y="0px"
	viewBox="0 0 100 100" style="enable-background:new 0 0 100 100; fill: white;" xml:space="preserve">
<g>
	
	<path d="M65,5H35C18.5,5,5,18.5,5,35v30c0,16.5,13.5,30,30,30h30c16.5,0,30-13.5,30-30V35C95,18.5,81.5,5,65,5z M76,48.5
		c-1.2,3.1-2.5,6.2-3.7,9.3c-0.1,0.3-0.2,0.3-0.5,0.3c-2.4,0-4.8,0-7.2,0c-0.6,0-0.6,0-0.6,0.5c0,5.2,0,10.5,0,15.7
		c0,5.2,0,10.5,0,15.7c0,0.5,0,0.5-0.5,0.5c-3.7,0-7.4,0-11,0c-0.6,0-0.6,0.1-0.6-0.5c0-4.1,0-8.2,0-12.4c0-6.4,0-12.8,0-19.2
		c0-0.4-0.1-0.5-0.5-0.5c-2.4,0-4.8,0-7.2,0c-0.3,0-0.4-0.1-0.4-0.4c0-3.1,0-6.2,0-9.3c0-0.3,0.1-0.5,0.4-0.5c2.4,0,4.8,0,7.2,0
		c0.4,0,0.5-0.1,0.5-0.5c0-3.4-0.1-6.8,0-10.1c0.1-2.8,1.1-5.3,2.9-7.5c1.1-1.4,2.5-2.4,4.1-3.1c1.3-0.6,2.6-1,4.1-1.1
		c3-0.2,5.9,0,8.9-0.1c0.2,0,0.3,0.1,0.3,0.3c0,3.2,0,6.3,0,9.5c0,0.3-0.1,0.3-0.4,0.3c-1.2,0-2.4,0-3.6,0c-2.4,0-4.2,1.8-4.2,4.2
		c0,2.5,0,5,0,7.5c0,0.5,0,0.5,0.5,0.5c3.7,0,7.4,0,11.1,0C76.1,48,76.2,47.9,76,48.5z"/>
</g>
</svg>
